<mxfile host="Electron" modified="2024-03-12T07:47:36.177Z" agent="Mozilla/5.0 (Windows NT 10.0; Win64; x64) AppleWebKit/537.36 (KHTML, like Gecko) draw.io/23.1.5 Chrome/120.0.6099.109 Electron/28.1.0 Safari/537.36" etag="5qC7Nxt82XxTOEbuSnbz" version="23.1.5" type="device">
  <diagram id="C5RBs43oDa-KdzZeNtuy" name="Page-1">
    <mxGraphModel dx="2520" dy="1228" grid="1" gridSize="10" guides="1" tooltips="1" connect="1" arrows="1" fold="1" page="0" pageScale="1" pageWidth="827" pageHeight="1169" math="0" shadow="0">
      <root>
        <mxCell id="WIyWlLk6GJQsqaUBKTNV-0" />
        <mxCell id="WIyWlLk6GJQsqaUBKTNV-1" parent="WIyWlLk6GJQsqaUBKTNV-0" />
        <mxCell id="WIO_JSUKQLCjluEcE3On-44" value="Client" style="swimlane;fontStyle=1;align=center;verticalAlign=top;childLayout=stackLayout;horizontal=1;startSize=26;horizontalStack=0;resizeParent=1;resizeParentMax=0;resizeLast=0;collapsible=1;marginBottom=0;whiteSpace=wrap;html=1;" parent="WIyWlLk6GJQsqaUBKTNV-1" vertex="1">
          <mxGeometry x="255" y="32" width="410" height="98" as="geometry" />
        </mxCell>
        <mxCell id="WIO_JSUKQLCjluEcE3On-45" value="+ Name: String&lt;div&gt;+ PhoneNumber: String&lt;/div&gt;&lt;div&gt;+ AddressDelivery: String&lt;/div&gt;" style="text;strokeColor=none;fillColor=none;align=left;verticalAlign=top;spacingLeft=4;spacingRight=4;overflow=hidden;rotatable=0;points=[[0,0.5],[1,0.5]];portConstraint=eastwest;whiteSpace=wrap;html=1;" parent="WIO_JSUKQLCjluEcE3On-44" vertex="1">
          <mxGeometry y="26" width="410" height="64" as="geometry" />
        </mxCell>
        <mxCell id="WIO_JSUKQLCjluEcE3On-46" value="" style="line;strokeWidth=1;fillColor=none;align=left;verticalAlign=middle;spacingTop=-1;spacingLeft=3;spacingRight=3;rotatable=0;labelPosition=right;points=[];portConstraint=eastwest;strokeColor=inherit;" parent="WIO_JSUKQLCjluEcE3On-44" vertex="1">
          <mxGeometry y="90" width="410" height="8" as="geometry" />
        </mxCell>
        <mxCell id="WIO_JSUKQLCjluEcE3On-48" value="Dish&lt;div&gt;&lt;br/&gt;&lt;/div&gt;" style="swimlane;fontStyle=1;align=center;verticalAlign=top;childLayout=stackLayout;horizontal=1;startSize=26;horizontalStack=0;resizeParent=1;resizeParentMax=0;resizeLast=0;collapsible=1;marginBottom=0;whiteSpace=wrap;html=1;" parent="WIyWlLk6GJQsqaUBKTNV-1" vertex="1">
          <mxGeometry x="-50" y="182" width="360" height="108" as="geometry" />
        </mxCell>
        <mxCell id="WIO_JSUKQLCjluEcE3On-49" value="+ NameDish : String&lt;br&gt;+ Description : String&lt;br&gt;+ Cost : int" style="text;strokeColor=none;fillColor=none;align=left;verticalAlign=top;spacingLeft=4;spacingRight=4;overflow=hidden;rotatable=0;points=[[0,0.5],[1,0.5]];portConstraint=eastwest;whiteSpace=wrap;html=1;" parent="WIO_JSUKQLCjluEcE3On-48" vertex="1">
          <mxGeometry y="26" width="360" height="74" as="geometry" />
        </mxCell>
        <mxCell id="WIO_JSUKQLCjluEcE3On-50" value="" style="line;strokeWidth=1;fillColor=none;align=left;verticalAlign=middle;spacingTop=-1;spacingLeft=3;spacingRight=3;rotatable=0;labelPosition=right;points=[];portConstraint=eastwest;strokeColor=inherit;" parent="WIO_JSUKQLCjluEcE3On-48" vertex="1">
          <mxGeometry y="100" width="360" height="8" as="geometry" />
        </mxCell>
        <mxCell id="WIO_JSUKQLCjluEcE3On-52" value="Delivery" style="swimlane;fontStyle=1;align=center;verticalAlign=top;childLayout=stackLayout;horizontal=1;startSize=26;horizontalStack=0;resizeParent=1;resizeParentMax=0;resizeLast=0;collapsible=1;marginBottom=0;whiteSpace=wrap;html=1;" parent="WIyWlLk6GJQsqaUBKTNV-1" vertex="1">
          <mxGeometry x="-60" y="400" width="380" height="210" as="geometry" />
        </mxCell>
        <mxCell id="WIO_JSUKQLCjluEcE3On-53" value="+ OrderNumber : int&lt;br&gt;+ Status : String&lt;br&gt;+ Date : String&lt;br&gt;+ Time : String&lt;br&gt;+ Order : String" style="text;strokeColor=none;fillColor=none;align=left;verticalAlign=top;spacingLeft=4;spacingRight=4;overflow=hidden;rotatable=0;points=[[0,0.5],[1,0.5]];portConstraint=eastwest;whiteSpace=wrap;html=1;" parent="WIO_JSUKQLCjluEcE3On-52" vertex="1">
          <mxGeometry y="26" width="380" height="84" as="geometry" />
        </mxCell>
        <mxCell id="WIO_JSUKQLCjluEcE3On-54" value="" style="line;strokeWidth=1;fillColor=none;align=left;verticalAlign=middle;spacingTop=-1;spacingLeft=3;spacingRight=3;rotatable=0;labelPosition=right;points=[];portConstraint=eastwest;strokeColor=inherit;" parent="WIO_JSUKQLCjluEcE3On-52" vertex="1">
          <mxGeometry y="110" width="380" height="8" as="geometry" />
        </mxCell>
        <mxCell id="WIO_JSUKQLCjluEcE3On-55" value="+ Create(Order)&lt;br&gt;+ Cansel(Order)" style="text;strokeColor=none;fillColor=none;align=left;verticalAlign=top;spacingLeft=4;spacingRight=4;overflow=hidden;rotatable=0;points=[[0,0.5],[1,0.5]];portConstraint=eastwest;whiteSpace=wrap;html=1;" parent="WIO_JSUKQLCjluEcE3On-52" vertex="1">
          <mxGeometry y="118" width="380" height="92" as="geometry" />
        </mxCell>
        <mxCell id="WIO_JSUKQLCjluEcE3On-56" value="Cart" style="swimlane;fontStyle=1;align=center;verticalAlign=top;childLayout=stackLayout;horizontal=1;startSize=26;horizontalStack=0;resizeParent=1;resizeParentMax=0;resizeLast=0;collapsible=1;marginBottom=0;whiteSpace=wrap;html=1;" parent="WIyWlLk6GJQsqaUBKTNV-1" vertex="1">
          <mxGeometry x="420" y="220" width="290" height="88" as="geometry" />
        </mxCell>
        <mxCell id="WIO_JSUKQLCjluEcE3On-57" value="+ NameDish: String&lt;br&gt;+ TotalCost: int" style="text;strokeColor=none;fillColor=none;align=left;verticalAlign=top;spacingLeft=4;spacingRight=4;overflow=hidden;rotatable=0;points=[[0,0.5],[1,0.5]];portConstraint=eastwest;whiteSpace=wrap;html=1;" parent="WIO_JSUKQLCjluEcE3On-56" vertex="1">
          <mxGeometry y="26" width="290" height="54" as="geometry" />
        </mxCell>
        <mxCell id="WIO_JSUKQLCjluEcE3On-58" value="" style="line;strokeWidth=1;fillColor=none;align=left;verticalAlign=middle;spacingTop=-1;spacingLeft=3;spacingRight=3;rotatable=0;labelPosition=right;points=[];portConstraint=eastwest;strokeColor=inherit;" parent="WIO_JSUKQLCjluEcE3On-56" vertex="1">
          <mxGeometry y="80" width="290" height="8" as="geometry" />
        </mxCell>
        <mxCell id="WIO_JSUKQLCjluEcE3On-60" value="Order" style="swimlane;fontStyle=1;align=center;verticalAlign=top;childLayout=stackLayout;horizontal=1;startSize=26;horizontalStack=0;resizeParent=1;resizeParentMax=0;resizeLast=0;collapsible=1;marginBottom=0;whiteSpace=wrap;html=1;" parent="WIyWlLk6GJQsqaUBKTNV-1" vertex="1">
          <mxGeometry x="470" y="380" width="270" height="148" as="geometry" />
        </mxCell>
        <mxCell id="WIO_JSUKQLCjluEcE3On-61" value="+ OrderNumber : int&lt;br&gt;+ Status : String&lt;br&gt;+ Date : String&lt;br&gt;+ Time : String&lt;br&gt;+ Cart : String&lt;br&gt;+ Client : String&lt;div&gt;&lt;br/&gt;&lt;/div&gt;" style="text;strokeColor=none;fillColor=none;align=left;verticalAlign=top;spacingLeft=4;spacingRight=4;overflow=hidden;rotatable=0;points=[[0,0.5],[1,0.5]];portConstraint=eastwest;whiteSpace=wrap;html=1;" parent="WIO_JSUKQLCjluEcE3On-60" vertex="1">
          <mxGeometry y="26" width="270" height="114" as="geometry" />
        </mxCell>
        <mxCell id="WIO_JSUKQLCjluEcE3On-62" value="" style="line;strokeWidth=1;fillColor=none;align=left;verticalAlign=middle;spacingTop=-1;spacingLeft=3;spacingRight=3;rotatable=0;labelPosition=right;points=[];portConstraint=eastwest;strokeColor=inherit;" parent="WIO_JSUKQLCjluEcE3On-60" vertex="1">
          <mxGeometry y="140" width="270" height="8" as="geometry" />
        </mxCell>
        <mxCell id="WIO_JSUKQLCjluEcE3On-64" value="Receipt" style="swimlane;fontStyle=1;align=center;verticalAlign=top;childLayout=stackLayout;horizontal=1;startSize=26;horizontalStack=0;resizeParent=1;resizeParentMax=0;resizeLast=0;collapsible=1;marginBottom=0;whiteSpace=wrap;html=1;" parent="WIyWlLk6GJQsqaUBKTNV-1" vertex="1">
          <mxGeometry x="-30" y="640" width="390" height="128" as="geometry" />
        </mxCell>
        <mxCell id="WIO_JSUKQLCjluEcE3On-65" value="+ OrderNumber : int&lt;br&gt;+ Date : String&lt;br&gt;+ Time : String&lt;br&gt;+ Order: String&lt;br&gt;+ TotalCost: int&lt;div&gt;&lt;br&gt;&lt;/div&gt;" style="text;strokeColor=none;fillColor=none;align=left;verticalAlign=top;spacingLeft=4;spacingRight=4;overflow=hidden;rotatable=0;points=[[0,0.5],[1,0.5]];portConstraint=eastwest;whiteSpace=wrap;html=1;" parent="WIO_JSUKQLCjluEcE3On-64" vertex="1">
          <mxGeometry y="26" width="390" height="94" as="geometry" />
        </mxCell>
        <mxCell id="WIO_JSUKQLCjluEcE3On-66" value="" style="line;strokeWidth=1;fillColor=none;align=left;verticalAlign=middle;spacingTop=-1;spacingLeft=3;spacingRight=3;rotatable=0;labelPosition=right;points=[];portConstraint=eastwest;strokeColor=inherit;" parent="WIO_JSUKQLCjluEcE3On-64" vertex="1">
          <mxGeometry y="120" width="390" height="8" as="geometry" />
        </mxCell>
        <mxCell id="WIO_JSUKQLCjluEcE3On-72" value="Use" style="endArrow=open;endSize=12;dashed=1;html=1;rounded=0;exitX=0.509;exitY=1.043;exitDx=0;exitDy=0;exitPerimeter=0;entryX=0.146;entryY=-0.003;entryDx=0;entryDy=0;entryPerimeter=0;" parent="WIyWlLk6GJQsqaUBKTNV-1" source="WIO_JSUKQLCjluEcE3On-134" target="WIO_JSUKQLCjluEcE3On-56" edge="1">
          <mxGeometry width="160" relative="1" as="geometry">
            <mxPoint x="390" y="200" as="sourcePoint" />
            <mxPoint x="460" y="210" as="targetPoint" />
            <Array as="points">
              <mxPoint x="210" y="130" />
            </Array>
          </mxGeometry>
        </mxCell>
        <mxCell id="WIO_JSUKQLCjluEcE3On-73" value="Use" style="endArrow=open;endSize=12;dashed=1;html=1;rounded=0;exitX=1.028;exitY=0.236;exitDx=0;exitDy=0;exitPerimeter=0;entryX=0.003;entryY=1.014;entryDx=0;entryDy=0;entryPerimeter=0;" parent="WIyWlLk6GJQsqaUBKTNV-1" source="WIO_JSUKQLCjluEcE3On-112" target="WIO_JSUKQLCjluEcE3On-57" edge="1">
          <mxGeometry width="160" relative="1" as="geometry">
            <mxPoint x="-210.00000000000017" y="354.7079999999999" as="sourcePoint" />
            <mxPoint x="570" y="240" as="targetPoint" />
          </mxGeometry>
        </mxCell>
        <mxCell id="WIO_JSUKQLCjluEcE3On-75" value="Use" style="endArrow=open;endSize=12;dashed=1;html=1;rounded=0;exitX=1.007;exitY=0.078;exitDx=0;exitDy=0;exitPerimeter=0;entryX=0.005;entryY=0.155;entryDx=0;entryDy=0;entryPerimeter=0;" parent="WIyWlLk6GJQsqaUBKTNV-1" source="WIO_JSUKQLCjluEcE3On-52" target="WIO_JSUKQLCjluEcE3On-61" edge="1">
          <mxGeometry width="160" relative="1" as="geometry">
            <mxPoint x="390" y="440" as="sourcePoint" />
            <mxPoint x="550" y="440" as="targetPoint" />
          </mxGeometry>
        </mxCell>
        <mxCell id="WIO_JSUKQLCjluEcE3On-76" value="Use" style="endArrow=open;endSize=12;dashed=1;html=1;rounded=0;exitX=1.013;exitY=0.077;exitDx=0;exitDy=0;exitPerimeter=0;entryX=0;entryY=0.25;entryDx=0;entryDy=0;" parent="WIyWlLk6GJQsqaUBKTNV-1" source="WIO_JSUKQLCjluEcE3On-65" target="WIO_JSUKQLCjluEcE3On-145" edge="1">
          <mxGeometry width="160" relative="1" as="geometry">
            <mxPoint x="390" y="560" as="sourcePoint" />
            <mxPoint x="490" y="559.0000000000002" as="targetPoint" />
          </mxGeometry>
        </mxCell>
        <mxCell id="WIO_JSUKQLCjluEcE3On-83" value="AuthService" style="swimlane;fontStyle=1;align=center;verticalAlign=top;childLayout=stackLayout;horizontal=1;startSize=26;horizontalStack=0;resizeParent=1;resizeParentMax=0;resizeLast=0;collapsible=1;marginBottom=0;whiteSpace=wrap;html=1;" parent="WIyWlLk6GJQsqaUBKTNV-1" vertex="1">
          <mxGeometry x="255" y="-150" width="420" height="150" as="geometry" />
        </mxCell>
        <mxCell id="WIO_JSUKQLCjluEcE3On-84" value="+ Name: String&lt;br&gt;+ Password: String&amp;nbsp;&lt;br&gt;+ PhoneNumber: String&lt;div&gt;+ Birthday: String&lt;/div&gt;" style="text;strokeColor=none;fillColor=none;align=left;verticalAlign=top;spacingLeft=4;spacingRight=4;overflow=hidden;rotatable=0;points=[[0,0.5],[1,0.5]];portConstraint=eastwest;whiteSpace=wrap;html=1;" parent="WIO_JSUKQLCjluEcE3On-83" vertex="1">
          <mxGeometry y="26" width="420" height="64" as="geometry" />
        </mxCell>
        <mxCell id="WIO_JSUKQLCjluEcE3On-85" value="" style="line;strokeWidth=1;fillColor=none;align=left;verticalAlign=middle;spacingTop=-1;spacingLeft=3;spacingRight=3;rotatable=0;labelPosition=right;points=[];portConstraint=eastwest;strokeColor=inherit;" parent="WIO_JSUKQLCjluEcE3On-83" vertex="1">
          <mxGeometry y="90" width="420" height="8" as="geometry" />
        </mxCell>
        <mxCell id="WIO_JSUKQLCjluEcE3On-86" value="+ LogIn(Name, passord)&lt;br&gt;+ Registration (Name, Password, PhoneNumber, Birthday)&lt;div&gt;&lt;br/&gt;&lt;/div&gt;" style="text;strokeColor=none;fillColor=none;align=left;verticalAlign=top;spacingLeft=4;spacingRight=4;overflow=hidden;rotatable=0;points=[[0,0.5],[1,0.5]];portConstraint=eastwest;whiteSpace=wrap;html=1;" parent="WIO_JSUKQLCjluEcE3On-83" vertex="1">
          <mxGeometry y="98" width="420" height="52" as="geometry" />
        </mxCell>
        <mxCell id="WIO_JSUKQLCjluEcE3On-87" value="Use" style="endArrow=open;endSize=12;dashed=1;html=1;rounded=0;exitX=0.473;exitY=1.074;exitDx=0;exitDy=0;exitPerimeter=0;entryX=0.5;entryY=0;entryDx=0;entryDy=0;" parent="WIyWlLk6GJQsqaUBKTNV-1" source="WIO_JSUKQLCjluEcE3On-86" target="WIO_JSUKQLCjluEcE3On-44" edge="1">
          <mxGeometry width="160" relative="1" as="geometry">
            <mxPoint x="580" y="140" as="sourcePoint" />
            <mxPoint x="740" y="140" as="targetPoint" />
          </mxGeometry>
        </mxCell>
        <mxCell id="WIO_JSUKQLCjluEcE3On-88" value="ClientRepository" style="swimlane;fontStyle=1;align=center;verticalAlign=top;childLayout=stackLayout;horizontal=1;startSize=26;horizontalStack=0;resizeParent=1;resizeParentMax=0;resizeLast=0;collapsible=1;marginBottom=0;whiteSpace=wrap;html=1;" parent="WIyWlLk6GJQsqaUBKTNV-1" vertex="1">
          <mxGeometry x="730" y="-50" width="160" height="140" as="geometry" />
        </mxCell>
        <mxCell id="WIO_JSUKQLCjluEcE3On-89" value="+ Client: List&amp;lt;client&amp;gt;" style="text;strokeColor=none;fillColor=none;align=left;verticalAlign=top;spacingLeft=4;spacingRight=4;overflow=hidden;rotatable=0;points=[[0,0.5],[1,0.5]];portConstraint=eastwest;whiteSpace=wrap;html=1;" parent="WIO_JSUKQLCjluEcE3On-88" vertex="1">
          <mxGeometry y="26" width="160" height="34" as="geometry" />
        </mxCell>
        <mxCell id="WIO_JSUKQLCjluEcE3On-90" value="" style="line;strokeWidth=1;fillColor=none;align=left;verticalAlign=middle;spacingTop=-1;spacingLeft=3;spacingRight=3;rotatable=0;labelPosition=right;points=[];portConstraint=eastwest;strokeColor=inherit;" parent="WIO_JSUKQLCjluEcE3On-88" vertex="1">
          <mxGeometry y="60" width="160" height="8" as="geometry" />
        </mxCell>
        <mxCell id="WIO_JSUKQLCjluEcE3On-91" value="+ Add(Client )&lt;br&gt;+ Save(Client)&lt;br&gt;+ Delete(Client)&lt;br&gt;+ Update(Client)" style="text;strokeColor=none;fillColor=none;align=left;verticalAlign=top;spacingLeft=4;spacingRight=4;overflow=hidden;rotatable=0;points=[[0,0.5],[1,0.5]];portConstraint=eastwest;whiteSpace=wrap;html=1;" parent="WIO_JSUKQLCjluEcE3On-88" vertex="1">
          <mxGeometry y="68" width="160" height="72" as="geometry" />
        </mxCell>
        <mxCell id="WIO_JSUKQLCjluEcE3On-92" value="" style="endArrow=block;startArrow=block;endFill=1;startFill=1;html=1;rounded=0;entryX=0;entryY=0.5;entryDx=0;entryDy=0;exitX=1;exitY=0.176;exitDx=0;exitDy=0;exitPerimeter=0;" parent="WIyWlLk6GJQsqaUBKTNV-1" source="WIO_JSUKQLCjluEcE3On-45" target="WIO_JSUKQLCjluEcE3On-89" edge="1">
          <mxGeometry width="160" relative="1" as="geometry">
            <mxPoint x="640" y="-40" as="sourcePoint" />
            <mxPoint x="800" y="-40" as="targetPoint" />
          </mxGeometry>
        </mxCell>
        <mxCell id="WIO_JSUKQLCjluEcE3On-93" value="MenuRepository" style="swimlane;fontStyle=1;align=center;verticalAlign=top;childLayout=stackLayout;horizontal=1;startSize=26;horizontalStack=0;resizeParent=1;resizeParentMax=0;resizeLast=0;collapsible=1;marginBottom=0;whiteSpace=wrap;html=1;" parent="WIyWlLk6GJQsqaUBKTNV-1" vertex="1">
          <mxGeometry x="-310" y="130" width="200" height="120" as="geometry" />
        </mxCell>
        <mxCell id="WIO_JSUKQLCjluEcE3On-94" value="+ Dish: List&amp;lt;dish&amp;gt;" style="text;strokeColor=none;fillColor=none;align=left;verticalAlign=top;spacingLeft=4;spacingRight=4;overflow=hidden;rotatable=0;points=[[0,0.5],[1,0.5]];portConstraint=eastwest;whiteSpace=wrap;html=1;" parent="WIO_JSUKQLCjluEcE3On-93" vertex="1">
          <mxGeometry y="26" width="200" height="26" as="geometry" />
        </mxCell>
        <mxCell id="WIO_JSUKQLCjluEcE3On-95" value="" style="line;strokeWidth=1;fillColor=none;align=left;verticalAlign=middle;spacingTop=-1;spacingLeft=3;spacingRight=3;rotatable=0;labelPosition=right;points=[];portConstraint=eastwest;strokeColor=inherit;" parent="WIO_JSUKQLCjluEcE3On-93" vertex="1">
          <mxGeometry y="52" width="200" height="8" as="geometry" />
        </mxCell>
        <mxCell id="WIO_JSUKQLCjluEcE3On-96" value="+ Save(Menu)&lt;br&gt;+ Delete(Menu)&lt;br&gt;+ Update(Menu)" style="text;strokeColor=none;fillColor=none;align=left;verticalAlign=top;spacingLeft=4;spacingRight=4;overflow=hidden;rotatable=0;points=[[0,0.5],[1,0.5]];portConstraint=eastwest;whiteSpace=wrap;html=1;" parent="WIO_JSUKQLCjluEcE3On-93" vertex="1">
          <mxGeometry y="60" width="200" height="60" as="geometry" />
        </mxCell>
        <mxCell id="WIO_JSUKQLCjluEcE3On-98" value="OrderRepository" style="swimlane;fontStyle=1;align=center;verticalAlign=top;childLayout=stackLayout;horizontal=1;startSize=26;horizontalStack=0;resizeParent=1;resizeParentMax=0;resizeLast=0;collapsible=1;marginBottom=0;whiteSpace=wrap;html=1;" parent="WIyWlLk6GJQsqaUBKTNV-1" vertex="1">
          <mxGeometry x="450" y="660" width="315" height="140" as="geometry" />
        </mxCell>
        <mxCell id="WIO_JSUKQLCjluEcE3On-99" value="+ Order: List&amp;lt;order&amp;gt;&lt;div&gt;&lt;br/&gt;&lt;/div&gt;" style="text;strokeColor=none;fillColor=none;align=left;verticalAlign=top;spacingLeft=4;spacingRight=4;overflow=hidden;rotatable=0;points=[[0,0.5],[1,0.5]];portConstraint=eastwest;whiteSpace=wrap;html=1;" parent="WIO_JSUKQLCjluEcE3On-98" vertex="1">
          <mxGeometry y="26" width="315" height="44" as="geometry" />
        </mxCell>
        <mxCell id="WIO_JSUKQLCjluEcE3On-100" value="" style="line;strokeWidth=1;fillColor=none;align=left;verticalAlign=middle;spacingTop=-1;spacingLeft=3;spacingRight=3;rotatable=0;labelPosition=right;points=[];portConstraint=eastwest;strokeColor=inherit;" parent="WIO_JSUKQLCjluEcE3On-98" vertex="1">
          <mxGeometry y="70" width="315" height="8" as="geometry" />
        </mxCell>
        <mxCell id="WIO_JSUKQLCjluEcE3On-101" value="+ Save(Order)&lt;br&gt;+ Delete(Order)&lt;br&gt;+ Update(Order)" style="text;strokeColor=none;fillColor=none;align=left;verticalAlign=top;spacingLeft=4;spacingRight=4;overflow=hidden;rotatable=0;points=[[0,0.5],[1,0.5]];portConstraint=eastwest;whiteSpace=wrap;html=1;" parent="WIO_JSUKQLCjluEcE3On-98" vertex="1">
          <mxGeometry y="78" width="315" height="62" as="geometry" />
        </mxCell>
        <mxCell id="WIO_JSUKQLCjluEcE3On-104" value="Use" style="endArrow=open;endSize=12;dashed=1;html=1;rounded=0;exitX=-0.004;exitY=0.091;exitDx=0;exitDy=0;exitPerimeter=0;entryX=1;entryY=0.844;entryDx=0;entryDy=0;entryPerimeter=0;" parent="WIyWlLk6GJQsqaUBKTNV-1" source="WIO_JSUKQLCjluEcE3On-88" target="WIO_JSUKQLCjluEcE3On-84" edge="1">
          <mxGeometry width="160" relative="1" as="geometry">
            <mxPoint x="610" y="-10" as="sourcePoint" />
            <mxPoint x="770" y="-10" as="targetPoint" />
          </mxGeometry>
        </mxCell>
        <mxCell id="WIO_JSUKQLCjluEcE3On-109" value="MenuController" style="swimlane;fontStyle=1;align=center;verticalAlign=top;childLayout=stackLayout;horizontal=1;startSize=26;horizontalStack=0;resizeParent=1;resizeParentMax=0;resizeLast=0;collapsible=1;marginBottom=0;whiteSpace=wrap;html=1;" parent="WIyWlLk6GJQsqaUBKTNV-1" vertex="1">
          <mxGeometry x="-320" y="300" width="240" height="100" as="geometry" />
        </mxCell>
        <mxCell id="WIO_JSUKQLCjluEcE3On-111" value="" style="line;strokeWidth=1;fillColor=none;align=left;verticalAlign=middle;spacingTop=-1;spacingLeft=3;spacingRight=3;rotatable=0;labelPosition=right;points=[];portConstraint=eastwest;strokeColor=inherit;" parent="WIO_JSUKQLCjluEcE3On-109" vertex="1">
          <mxGeometry y="26" width="240" height="8" as="geometry" />
        </mxCell>
        <mxCell id="WIO_JSUKQLCjluEcE3On-112" value="+ AddCart(NameDish, Cost)&amp;nbsp;&lt;br&gt;+ DeleteCart(NameDish, Cost)&amp;nbsp;&lt;br&gt;&lt;div&gt;+ DeleteAll(Order)&lt;div&gt;&lt;br&gt;&lt;/div&gt;&lt;/div&gt;" style="text;strokeColor=none;fillColor=none;align=left;verticalAlign=top;spacingLeft=4;spacingRight=4;overflow=hidden;rotatable=0;points=[[0,0.5],[1,0.5]];portConstraint=eastwest;whiteSpace=wrap;html=1;" parent="WIO_JSUKQLCjluEcE3On-109" vertex="1">
          <mxGeometry y="34" width="240" height="66" as="geometry" />
        </mxCell>
        <mxCell id="WIO_JSUKQLCjluEcE3On-116" value="ReceiptController" style="swimlane;fontStyle=1;align=center;verticalAlign=top;childLayout=stackLayout;horizontal=1;startSize=26;horizontalStack=0;resizeParent=1;resizeParentMax=0;resizeLast=0;collapsible=1;marginBottom=0;whiteSpace=wrap;html=1;" parent="WIyWlLk6GJQsqaUBKTNV-1" vertex="1">
          <mxGeometry x="-250" y="640" width="170" height="70" as="geometry" />
        </mxCell>
        <mxCell id="WIO_JSUKQLCjluEcE3On-118" value="" style="line;strokeWidth=1;fillColor=none;align=left;verticalAlign=middle;spacingTop=-1;spacingLeft=3;spacingRight=3;rotatable=0;labelPosition=right;points=[];portConstraint=eastwest;strokeColor=inherit;" parent="WIO_JSUKQLCjluEcE3On-116" vertex="1">
          <mxGeometry y="26" width="170" height="8" as="geometry" />
        </mxCell>
        <mxCell id="WIO_JSUKQLCjluEcE3On-119" value="+ Create(Receipt)" style="text;strokeColor=none;fillColor=none;align=left;verticalAlign=top;spacingLeft=4;spacingRight=4;overflow=hidden;rotatable=0;points=[[0,0.5],[1,0.5]];portConstraint=eastwest;whiteSpace=wrap;html=1;" parent="WIO_JSUKQLCjluEcE3On-116" vertex="1">
          <mxGeometry y="34" width="170" height="36" as="geometry" />
        </mxCell>
        <mxCell id="WIO_JSUKQLCjluEcE3On-122" value="Use" style="endArrow=open;endSize=12;dashed=1;html=1;rounded=0;exitX=1.014;exitY=0.137;exitDx=0;exitDy=0;exitPerimeter=0;entryX=-0.002;entryY=0.112;entryDx=0;entryDy=0;entryPerimeter=0;" parent="WIyWlLk6GJQsqaUBKTNV-1" source="WIO_JSUKQLCjluEcE3On-116" target="WIO_JSUKQLCjluEcE3On-64" edge="1">
          <mxGeometry width="160" relative="1" as="geometry">
            <mxPoint x="-250" y="620" as="sourcePoint" />
            <mxPoint x="-90" y="620" as="targetPoint" />
          </mxGeometry>
        </mxCell>
        <mxCell id="WIO_JSUKQLCjluEcE3On-131" value="ClientController&lt;div&gt;&lt;br/&gt;&lt;/div&gt;" style="swimlane;fontStyle=1;align=center;verticalAlign=top;childLayout=stackLayout;horizontal=1;startSize=26;horizontalStack=0;resizeParent=1;resizeParentMax=0;resizeLast=0;collapsible=1;marginBottom=0;whiteSpace=wrap;html=1;" parent="WIyWlLk6GJQsqaUBKTNV-1" vertex="1">
          <mxGeometry x="-260" y="-32" width="400" height="110" as="geometry" />
        </mxCell>
        <mxCell id="WIO_JSUKQLCjluEcE3On-133" value="" style="line;strokeWidth=1;fillColor=none;align=left;verticalAlign=middle;spacingTop=-1;spacingLeft=3;spacingRight=3;rotatable=0;labelPosition=right;points=[];portConstraint=eastwest;strokeColor=inherit;" parent="WIO_JSUKQLCjluEcE3On-131" vertex="1">
          <mxGeometry y="26" width="400" height="8" as="geometry" />
        </mxCell>
        <mxCell id="WIO_JSUKQLCjluEcE3On-134" value="+ MakeOrder(NameDish,AddressDelivery,PhoneNumber, Name)&lt;br&gt;+ CancelOrder(OrderNumber)&amp;nbsp;&lt;br&gt;+ GetReceipt(OrderNumber)&amp;nbsp;&lt;br&gt;+ LogOut()" style="text;strokeColor=none;fillColor=none;align=left;verticalAlign=top;spacingLeft=4;spacingRight=4;overflow=hidden;rotatable=0;points=[[0,0.5],[1,0.5]];portConstraint=eastwest;whiteSpace=wrap;html=1;" parent="WIO_JSUKQLCjluEcE3On-131" vertex="1">
          <mxGeometry y="34" width="400" height="76" as="geometry" />
        </mxCell>
        <mxCell id="WIO_JSUKQLCjluEcE3On-136" value="Use" style="endArrow=open;endSize=12;dashed=1;html=1;rounded=0;exitX=-0.003;exitY=0.136;exitDx=0;exitDy=0;exitPerimeter=0;entryX=1.008;entryY=0.168;entryDx=0;entryDy=0;entryPerimeter=0;" parent="WIyWlLk6GJQsqaUBKTNV-1" source="WIO_JSUKQLCjluEcE3On-44" target="WIO_JSUKQLCjluEcE3On-131" edge="1">
          <mxGeometry width="160" relative="1" as="geometry">
            <mxPoint x="370" y="220" as="sourcePoint" />
            <mxPoint x="530" y="220" as="targetPoint" />
          </mxGeometry>
        </mxCell>
        <mxCell id="WIO_JSUKQLCjluEcE3On-137" value="Use" style="endArrow=open;endSize=12;dashed=1;html=1;rounded=0;exitX=1.007;exitY=0.084;exitDx=0;exitDy=0;exitPerimeter=0;entryX=0.254;entryY=1.06;entryDx=0;entryDy=0;entryPerimeter=0;" parent="WIyWlLk6GJQsqaUBKTNV-1" source="WIO_JSUKQLCjluEcE3On-112" target="WIO_JSUKQLCjluEcE3On-49" edge="1">
          <mxGeometry width="160" relative="1" as="geometry">
            <mxPoint x="-80" y="320" as="sourcePoint" />
            <mxPoint x="10" y="280" as="targetPoint" />
          </mxGeometry>
        </mxCell>
        <mxCell id="WIO_JSUKQLCjluEcE3On-138" value="Use" style="endArrow=open;endSize=12;dashed=1;html=1;rounded=0;exitX=0.5;exitY=0;exitDx=0;exitDy=0;entryX=0.75;entryY=1;entryDx=0;entryDy=0;" parent="WIyWlLk6GJQsqaUBKTNV-1" source="WIO_JSUKQLCjluEcE3On-60" target="WIO_JSUKQLCjluEcE3On-56" edge="1">
          <mxGeometry width="160" relative="1" as="geometry">
            <mxPoint x="400" y="380" as="sourcePoint" />
            <mxPoint x="560" y="380" as="targetPoint" />
          </mxGeometry>
        </mxCell>
        <mxCell id="WIO_JSUKQLCjluEcE3On-140" value="OrderController" style="swimlane;fontStyle=1;align=center;verticalAlign=top;childLayout=stackLayout;horizontal=1;startSize=26;horizontalStack=0;resizeParent=1;resizeParentMax=0;resizeLast=0;collapsible=1;marginBottom=0;whiteSpace=wrap;html=1;" parent="WIyWlLk6GJQsqaUBKTNV-1" vertex="1">
          <mxGeometry x="840" y="380" width="300" height="90" as="geometry" />
        </mxCell>
        <mxCell id="WIO_JSUKQLCjluEcE3On-142" value="" style="line;strokeWidth=1;fillColor=none;align=left;verticalAlign=middle;spacingTop=-1;spacingLeft=3;spacingRight=3;rotatable=0;labelPosition=right;points=[];portConstraint=eastwest;strokeColor=inherit;" parent="WIO_JSUKQLCjluEcE3On-140" vertex="1">
          <mxGeometry y="26" width="300" height="8" as="geometry" />
        </mxCell>
        <mxCell id="WIO_JSUKQLCjluEcE3On-143" value="+ Create(Client, Cart)&amp;nbsp;&lt;br&gt;+ Cansel(Client,Cart)&lt;div&gt;&lt;br&gt;&lt;/div&gt;" style="text;strokeColor=none;fillColor=none;align=left;verticalAlign=top;spacingLeft=4;spacingRight=4;overflow=hidden;rotatable=0;points=[[0,0.5],[1,0.5]];portConstraint=eastwest;whiteSpace=wrap;html=1;" parent="WIO_JSUKQLCjluEcE3On-140" vertex="1">
          <mxGeometry y="34" width="300" height="56" as="geometry" />
        </mxCell>
        <mxCell id="WIO_JSUKQLCjluEcE3On-144" value="Use" style="endArrow=open;endSize=12;dashed=1;html=1;rounded=0;exitX=0;exitY=0.5;exitDx=0;exitDy=0;entryX=1;entryY=0.5;entryDx=0;entryDy=0;" parent="WIyWlLk6GJQsqaUBKTNV-1" source="WIO_JSUKQLCjluEcE3On-143" target="WIO_JSUKQLCjluEcE3On-61" edge="1">
          <mxGeometry width="160" relative="1" as="geometry">
            <mxPoint x="1010" y="530" as="sourcePoint" />
            <mxPoint x="1170" y="530" as="targetPoint" />
          </mxGeometry>
        </mxCell>
        <mxCell id="WIO_JSUKQLCjluEcE3On-145" value="PayMent" style="swimlane;fontStyle=1;align=center;verticalAlign=top;childLayout=stackLayout;horizontal=1;startSize=36;horizontalStack=0;resizeParent=1;resizeParentMax=0;resizeLast=0;collapsible=1;marginBottom=0;whiteSpace=wrap;html=1;" parent="WIyWlLk6GJQsqaUBKTNV-1" vertex="1">
          <mxGeometry x="820" y="550" width="160" height="70" as="geometry" />
        </mxCell>
        <mxCell id="WIO_JSUKQLCjluEcE3On-147" value="" style="line;strokeWidth=1;fillColor=none;align=left;verticalAlign=middle;spacingTop=-1;spacingLeft=3;spacingRight=3;rotatable=0;labelPosition=right;points=[];portConstraint=eastwest;strokeColor=inherit;" parent="WIO_JSUKQLCjluEcE3On-145" vertex="1">
          <mxGeometry y="36" width="160" height="8" as="geometry" />
        </mxCell>
        <mxCell id="WIO_JSUKQLCjluEcE3On-148" value="+ payment(TotalCost)" style="text;strokeColor=none;fillColor=none;align=left;verticalAlign=top;spacingLeft=4;spacingRight=4;overflow=hidden;rotatable=0;points=[[0,0.5],[1,0.5]];portConstraint=eastwest;whiteSpace=wrap;html=1;" parent="WIO_JSUKQLCjluEcE3On-145" vertex="1">
          <mxGeometry y="44" width="160" height="26" as="geometry" />
        </mxCell>
        <mxCell id="WIO_JSUKQLCjluEcE3On-149" value="Use" style="endArrow=open;endSize=12;dashed=1;html=1;rounded=0;exitX=0.25;exitY=0;exitDx=0;exitDy=0;entryX=1.014;entryY=0.979;entryDx=0;entryDy=0;entryPerimeter=0;" parent="WIyWlLk6GJQsqaUBKTNV-1" source="WIO_JSUKQLCjluEcE3On-145" target="WIO_JSUKQLCjluEcE3On-61" edge="1">
          <mxGeometry width="160" relative="1" as="geometry">
            <mxPoint x="1070" y="513" as="sourcePoint" />
            <mxPoint x="1230" y="513" as="targetPoint" />
          </mxGeometry>
        </mxCell>
        <mxCell id="WIO_JSUKQLCjluEcE3On-150" value="«interface»&lt;br&gt;&lt;b&gt;BaseOrder&lt;/b&gt;" style="html=1;whiteSpace=wrap;" parent="WIyWlLk6GJQsqaUBKTNV-1" vertex="1">
          <mxGeometry x="310" y="820" width="110" height="50" as="geometry" />
        </mxCell>
        <mxCell id="WIO_JSUKQLCjluEcE3On-151" value="" style="endArrow=block;dashed=1;endFill=0;endSize=12;html=1;rounded=0;exitX=1;exitY=0;exitDx=0;exitDy=0;entryX=0;entryY=0.5;entryDx=0;entryDy=0;" parent="WIyWlLk6GJQsqaUBKTNV-1" source="WIO_JSUKQLCjluEcE3On-150" target="WIO_JSUKQLCjluEcE3On-101" edge="1">
          <mxGeometry width="160" relative="1" as="geometry">
            <mxPoint x="590" y="890" as="sourcePoint" />
            <mxPoint x="750" y="890" as="targetPoint" />
          </mxGeometry>
        </mxCell>
        <mxCell id="WIO_JSUKQLCjluEcE3On-152" value="«interface»&lt;br&gt;&lt;b&gt;BaseAuthService&lt;/b&gt;" style="html=1;whiteSpace=wrap;" parent="WIyWlLk6GJQsqaUBKTNV-1" vertex="1">
          <mxGeometry x="390" y="-230" width="110" height="50" as="geometry" />
        </mxCell>
        <mxCell id="WIO_JSUKQLCjluEcE3On-153" value="" style="endArrow=block;dashed=1;endFill=0;endSize=12;html=1;rounded=0;exitX=0.75;exitY=1;exitDx=0;exitDy=0;entryX=0.5;entryY=0;entryDx=0;entryDy=0;" parent="WIyWlLk6GJQsqaUBKTNV-1" source="WIO_JSUKQLCjluEcE3On-152" target="WIO_JSUKQLCjluEcE3On-83" edge="1">
          <mxGeometry width="160" relative="1" as="geometry">
            <mxPoint x="540" y="-320" as="sourcePoint" />
            <mxPoint x="700" y="-320" as="targetPoint" />
          </mxGeometry>
        </mxCell>
        <mxCell id="gGLPVA0pK_uEtuYkxnyo-0" value="«interface»&lt;br&gt;Menu" style="html=1;whiteSpace=wrap;" parent="WIyWlLk6GJQsqaUBKTNV-1" vertex="1">
          <mxGeometry x="-530" y="130" width="110" height="50" as="geometry" />
        </mxCell>
        <mxCell id="gGLPVA0pK_uEtuYkxnyo-1" value="" style="endArrow=block;dashed=1;endFill=0;endSize=12;html=1;rounded=0;exitX=1;exitY=0.5;exitDx=0;exitDy=0;entryX=0;entryY=0.5;entryDx=0;entryDy=0;" parent="WIyWlLk6GJQsqaUBKTNV-1" source="gGLPVA0pK_uEtuYkxnyo-0" target="WIO_JSUKQLCjluEcE3On-94" edge="1">
          <mxGeometry width="160" relative="1" as="geometry">
            <mxPoint x="-490" y="223.5" as="sourcePoint" />
            <mxPoint x="-330" y="223.5" as="targetPoint" />
          </mxGeometry>
        </mxCell>
        <mxCell id="gGLPVA0pK_uEtuYkxnyo-5" value="Use" style="endArrow=open;endSize=12;dashed=1;html=1;rounded=0;exitX=0.25;exitY=0;exitDx=0;exitDy=0;entryX=0.5;entryY=1;entryDx=0;entryDy=0;" parent="WIyWlLk6GJQsqaUBKTNV-1" source="WIO_JSUKQLCjluEcE3On-98" target="WIO_JSUKQLCjluEcE3On-60" edge="1">
          <mxGeometry width="160" relative="1" as="geometry">
            <mxPoint x="525" y="570" as="sourcePoint" />
            <mxPoint x="685" y="570" as="targetPoint" />
          </mxGeometry>
        </mxCell>
        <mxCell id="gGLPVA0pK_uEtuYkxnyo-6" value="Use" style="endArrow=open;endSize=12;dashed=1;html=1;rounded=0;exitX=1;exitY=0.5;exitDx=0;exitDy=0;entryX=0.25;entryY=0;entryDx=0;entryDy=0;" parent="WIyWlLk6GJQsqaUBKTNV-1" source="WIO_JSUKQLCjluEcE3On-94" target="WIO_JSUKQLCjluEcE3On-48" edge="1">
          <mxGeometry width="160" relative="1" as="geometry">
            <mxPoint x="-40" y="130" as="sourcePoint" />
            <mxPoint x="120" y="130" as="targetPoint" />
            <Array as="points">
              <mxPoint x="-10" y="130" />
            </Array>
          </mxGeometry>
        </mxCell>
        <mxCell id="MXnBUYb-dA-pahRmM6bi-0" value="Use" style="endArrow=open;endSize=12;dashed=1;html=1;rounded=0;exitX=-0.001;exitY=-0.072;exitDx=0;exitDy=0;exitPerimeter=0;entryX=1;entryY=0.5;entryDx=0;entryDy=0;" edge="1" parent="WIyWlLk6GJQsqaUBKTNV-1" source="WIO_JSUKQLCjluEcE3On-57" target="WIO_JSUKQLCjluEcE3On-49">
          <mxGeometry width="160" relative="1" as="geometry">
            <mxPoint x="190" y="300" as="sourcePoint" />
            <mxPoint x="350" y="300" as="targetPoint" />
          </mxGeometry>
        </mxCell>
        <mxCell id="MXnBUYb-dA-pahRmM6bi-2" value="Kitchen" style="swimlane;fontStyle=1;align=center;verticalAlign=top;childLayout=stackLayout;horizontal=1;startSize=26;horizontalStack=0;resizeParent=1;resizeParentMax=0;resizeLast=0;collapsible=1;marginBottom=0;whiteSpace=wrap;html=1;" vertex="1" parent="WIyWlLk6GJQsqaUBKTNV-1">
          <mxGeometry x="-520" y="442" width="160" height="60" as="geometry" />
        </mxCell>
        <mxCell id="MXnBUYb-dA-pahRmM6bi-4" value="" style="line;strokeWidth=1;fillColor=none;align=left;verticalAlign=middle;spacingTop=-1;spacingLeft=3;spacingRight=3;rotatable=0;labelPosition=right;points=[];portConstraint=eastwest;strokeColor=inherit;" vertex="1" parent="MXnBUYb-dA-pahRmM6bi-2">
          <mxGeometry y="26" width="160" height="8" as="geometry" />
        </mxCell>
        <mxCell id="MXnBUYb-dA-pahRmM6bi-5" value="+CookingOrder(Receipt)" style="text;strokeColor=none;fillColor=none;align=left;verticalAlign=top;spacingLeft=4;spacingRight=4;overflow=hidden;rotatable=0;points=[[0,0.5],[1,0.5]];portConstraint=eastwest;whiteSpace=wrap;html=1;" vertex="1" parent="MXnBUYb-dA-pahRmM6bi-2">
          <mxGeometry y="34" width="160" height="26" as="geometry" />
        </mxCell>
        <mxCell id="MXnBUYb-dA-pahRmM6bi-6" value="Use" style="endArrow=open;endSize=12;dashed=1;html=1;rounded=0;exitX=1;exitY=0.25;exitDx=0;exitDy=0;entryX=0;entryY=0.25;entryDx=0;entryDy=0;" edge="1" parent="WIyWlLk6GJQsqaUBKTNV-1" source="MXnBUYb-dA-pahRmM6bi-2" target="WIO_JSUKQLCjluEcE3On-116">
          <mxGeometry width="160" relative="1" as="geometry">
            <mxPoint x="-120" y="580" as="sourcePoint" />
            <mxPoint x="40" y="580" as="targetPoint" />
          </mxGeometry>
        </mxCell>
      </root>
    </mxGraphModel>
  </diagram>
</mxfile>
